<?xml version="1.0" encoding="utf-8"?>
<!-- Generator: Adobe Illustrator 18.1.1, SVG Export Plug-In . SVG Version: 6.00 Build 0)  -->
<svg version="1.1" id="Layer_1" xmlns="http://www.w3.org/2000/svg" xmlns:xlink="http://www.w3.org/1999/xlink" x="0px" y="0px"
	 width="20px" height="20px" viewBox="-469 271 20 20" enable-background="new -469 271 20 20" xml:space="preserve">
<path fill="#39CCD3" d="M-459,271.1c-5.4,0-9.9,4.4-9.9,9.9s4.4,9.9,9.9,9.9s9.9-4.4,9.9-9.9C-449.1,275.6-453.5,271.1-459,271.1z
	 M-450.9,280.5c-2.1-0.3-4.1-0.4-5.8-0.1c-0.2-0.5-0.4-0.9-0.6-1.4c1.9-0.8,3.4-1.9,4.6-3.4C-451.7,277.1-451,278.7-450.9,280.5z
	 M-454,274.6c-1,1.3-2.4,2.3-4.1,3c-0.8-1.5-1.8-3-2.9-4.5c0.7-0.1,1.3-0.2,2-0.2C-457.1,272.9-455.4,273.5-454,274.6L-454,274.6z
	 M-462.6,273.7c1.1,1.4,2.1,2.9,2.9,4.4c-2,0.6-4.4,0.9-7.1,0.9C-466.3,276.7-464.7,274.8-462.6,273.7z M-467.1,281
	c0-0.1,0-0.1,0-0.2c3.2,0,5.9-0.4,8.2-1.1c0.2,0.4,0.4,0.8,0.5,1.2c-2.8,0.9-5.1,2.6-6.8,5.3C-466.4,284.8-467.1,283-467.1,281z
	 M-464,287.4c1.6-2.5,3.7-4.2,6.2-5c0.8,2,1.3,4,1.7,6.1c-0.9,0.4-1.9,0.6-2.9,0.6C-460.9,289.1-462.6,288.5-464,287.4z
	 M-454.5,287.8c-0.4-1.9-0.9-3.8-1.6-5.7c1.5-0.2,3.2-0.2,5.1,0.2C-451.3,284.6-452.6,286.5-454.5,287.8z"/>
</svg>
