<?xml version="1.0" encoding="utf-8"?>
<!-- Generator: Adobe Illustrator 18.1.1, SVG Export Plug-In . SVG Version: 6.00 Build 0)  -->
<svg version="1.1" id="Layer_1" xmlns="http://www.w3.org/2000/svg" xmlns:xlink="http://www.w3.org/1999/xlink" x="0px" y="0px"
	 width="20px" height="20px" viewBox="-469 271 20 20" enable-background="new -469 271 20 20" xml:space="preserve">
<path fill="#3F729B" d="M-451.4,279.5h-1.7c0.1,0.5,0.2,1,0.2,1.5c0,3.4-2.7,6.1-6.1,6.1s-6.1-2.7-6.1-6.1c0-0.5,0.1-1,0.2-1.5h-1.7
	v8.4c0,0.4,0.3,0.8,0.8,0.8h13.7c0.4,0,0.8-0.3,0.8-0.8L-451.4,279.5L-451.4,279.5z M-451.4,274.1c0-0.4-0.3-0.8-0.8-0.8h-2.3
	c-0.4,0-0.8,0.3-0.8,0.8v2.3c0,0.4,0.3,0.8,0.8,0.8h2.3c0.4,0,0.8-0.3,0.8-0.8V274.1z M-459,277.2c-2.1,0-3.8,1.7-3.8,3.8
	s1.7,3.8,3.8,3.8s3.8-1.7,3.8-3.8S-456.9,277.2-459,277.2z M-451.4,290.9h-15.2c-1.3,0-2.3-1-2.3-2.3v-15.2c0-1.3,1-2.3,2.3-2.3
	h15.2c1.3,0,2.3,1,2.3,2.3v15.2C-449.1,289.9-450.1,290.9-451.4,290.9z"/>
</svg>
