<?xml version="1.0" encoding="utf-8"?>
<!-- Generator: Adobe Illustrator 18.1.1, SVG Export Plug-In . SVG Version: 6.00 Build 0)  -->
<svg version="1.1" id="Layer_1" xmlns="http://www.w3.org/2000/svg" xmlns:xlink="http://www.w3.org/1999/xlink" x="0px" y="0px"
	 width="20px" height="20px" viewBox="-457 271 20 20" enable-background="new -457 271 20 20" xml:space="preserve">
<g id="icomoon-ignore">
</g>
<path fill="#39CCD3" d="M-439.4,271h-15.1c-1.3,0-2.4,1.1-2.4,2.4v15.1c0,1.3,1.1,2.4,2.4,2.4h15.1c1.3,0,2.4-1.1,2.4-2.4v-15.1
	C-437,272.1-438.1,271-439.4,271z M-450.6,287.7h-2.7v-8.9h2.7V287.7z M-452,277.6c-0.9,0-1.6-0.7-1.6-1.6c0-0.9,0.7-1.6,1.6-1.6
	c0.9,0,1.6,0.7,1.6,1.6C-450.4,276.9-451.1,277.6-452,277.6z M-440.4,287.7h-2.7c0,0,0-3.4,0-4.7c0-1.3-0.5-2-1.5-2
	c-1.1,0-1.7,0.7-1.7,2c0,1.4,0,4.7,0,4.7h-2.6v-8.9h2.6v1.2c0,0,0.8-1.5,2.7-1.5c1.9,0,3.2,1.1,3.2,3.5S-440.4,287.6-440.4,287.7
	L-440.4,287.7z"/>
</svg>
