<?xml version="1.0" encoding="utf-8"?>
<!-- Generated by IcoMoon.io -->
<!DOCTYPE svg PUBLIC "-//W3C//DTD SVG 1.1//EN" "http://www.w3.org/Graphics/SVG/1.1/DTD/svg11.dtd">
<svg version="1.1" xmlns="http://www.w3.org/2000/svg" xmlns:xlink="http://www.w3.org/1999/xlink" width="32" height="32" viewBox="0 0 32 32">
<g id="icomoon-ignore">
</g>
<path d="M16 3.125c-7.111 0-12.875 5.764-12.875 12.875s5.764 12.875 12.875 12.875 12.875-5.765 12.875-12.875c0-7.111-5.764-12.875-12.875-12.875zM26.605 15.4c-2.762-0.453-5.303-0.477-7.62-0.078-0.262-0.605-0.533-1.207-0.823-1.803 2.477-1.073 4.469-2.53 5.952-4.379 1.448 1.71 2.357 3.882 2.491 6.26zM22.483 7.588c-1.292 1.667-3.076 2.985-5.349 3.948-1.090-1.997-2.337-3.944-3.743-5.834 0.836-0.212 1.707-0.337 2.609-0.337 2.441 0 4.686 0.835 6.483 2.224zM11.201 6.521c1.429 1.869 2.694 3.796 3.795 5.773-2.607 0.768-5.72 1.162-9.318 1.187 0.743-3.042 2.792-5.572 5.523-6.96zM5.364 16c0-0.093 0.011-0.183 0.014-0.274 4.129-0.006 7.691-0.481 10.675-1.419 0.25 0.509 0.49 1.021 0.718 1.536-3.626 1.133-6.614 3.457-8.944 6.953-1.536-1.844-2.463-4.214-2.463-6.796zM9.473 24.379c2.113-3.313 4.809-5.47 8.152-6.466 0.995 2.596 1.726 5.268 2.191 8.004-1.186 0.458-2.47 0.719-3.816 0.719-2.461 0-4.723-0.848-6.527-2.257zM21.903 24.841c-0.47-2.524-1.159-4.992-2.060-7.4 2.012-0.284 4.228-0.21 6.651 0.211-0.469 2.989-2.176 5.571-4.591 7.189z" fill="#000000"></path>
</svg>
