<?xml version="1.0" encoding="utf-8"?>
<!-- Generated by IcoMoon.io -->
<!DOCTYPE svg PUBLIC "-//W3C//DTD SVG 1.1//EN" "http://www.w3.org/Graphics/SVG/1.1/DTD/svg11.dtd">
<svg version="1.1" xmlns="http://www.w3.org/2000/svg" xmlns:xlink="http://www.w3.org/1999/xlink" width="32" height="32" viewBox="0 0 32 32">
<g id="icomoon-ignore">
</g>
<path d="M25.905 14.018h-2.242c0.163 0.634 0.26 1.296 0.26 1.981 0 4.376-3.547 7.923-7.923 7.923s-7.923-3.547-7.923-7.923c0-0.685 0.097-1.347 0.26-1.981h-2.242v10.895c0 0.546 0.444 0.989 0.991 0.989h17.826c0.548 0 0.991-0.443 0.991-0.989v-10.895zM25.905 7.086c0-0.547-0.444-0.99-0.991-0.99h-2.97c-0.547 0-0.99 0.444-0.99 0.99v2.972c0 0.546 0.443 0.99 0.99 0.99h2.97c0.548 0 0.991-0.444 0.991-0.99v-2.972zM16 11.048c-2.735 0-4.952 2.216-4.952 4.951s2.217 4.953 4.952 4.953c2.735 0 4.952-2.218 4.952-4.953s-2.217-4.951-4.952-4.951zM25.905 28.875h-19.809c-1.64 0-2.971-1.331-2.971-2.972v-19.807c0-1.641 1.33-2.971 2.971-2.971h19.809c1.641 0 2.97 1.33 2.97 2.971v19.807c0 1.642-1.33 2.972-2.97 2.972z" fill="#000000"></path>
</svg>
