<?xml version="1.0" standalone="no"?>
<!DOCTYPE svg PUBLIC "-//W3C//DTD SVG 1.1//EN" "http://www.w3.org/Graphics/SVG/1.1/DTD/svg11.dtd" >
<svg xmlns="http://www.w3.org/2000/svg" xmlns:xlink="http://www.w3.org/1999/xlink" version="1.1">
<metadata></metadata>
<defs>
<font id="canarobook_italic" horiz-adv-x="1259" >
<font-face units-per-em="2048" ascent="1638" descent="-410" />
<missing-glyph horiz-adv-x="458" />
<glyph unicode="&#xfb01;" d="M55 788l31 168h227l23 138q38 214 182.5 330t355.5 116q104 0 180.5 -29t172.5 -94l-113 -135q-127 88 -260 88q-280 0 -330 -283l-24 -131h706l-170 -956h-186l137 788h-518l-137 -788h-189l140 788h-228z" />
<glyph unicode="&#xfb02;" horiz-adv-x="1310" d="M57 788l29 168h227l25 146q39 213 174 325.5t360 112.5q131 0 258 -65l177 -11l-258 -1464h-189l232 1311q-65 32 -117.5 45.5t-124.5 13.5q-274 0 -326 -274l-24 -140h362l-26 -168h-365l-139 -788h-189l142 788h-228z" />
<glyph horiz-adv-x="0" />
<glyph horiz-adv-x="682" />
<glyph unicode=" "  horiz-adv-x="458" />
<glyph unicode="&#x09;" horiz-adv-x="458" />
<glyph unicode="&#xa0;" horiz-adv-x="458" />
<glyph unicode="!" horiz-adv-x="499" d="M59 96q0 54 37.5 90.5t91.5 36.5q56 0 93.5 -36.5t37.5 -90.5t-37.5 -90.5t-93.5 -36.5q-54 0 -91.5 36.5t-37.5 90.5zM137 377l168 1016h209l-188 -1016h-189z" />
<glyph unicode="&#x22;" horiz-adv-x="770" d="M238 1071l88 494h209l-127 -494h-170zM549 1071l88 494h209l-127 -494h-170z" />
<glyph unicode="#" horiz-adv-x="1533" d="M59 381l29 168h262l135 274h-235l29 168h288l197 404h197l-197 -404h366l197 404h197l-197 -404h221l-30 -168h-273l-133 -274h246l-31 -168h-297l-188 -381h-197l186 381h-364l-188 -381h-197l186 381h-209zM549 549h364l134 274h-365z" />
<glyph unicode="$" horiz-adv-x="1372" d="M53 86l80 182q261 -116 522 -116q166 0 268.5 66t102.5 183q0 27 -6.5 50.5t-22 42t-30.5 33t-43.5 27t-48.5 21t-58 18t-59.5 14.5t-65 14t-63.5 14q-198 44 -283.5 113.5t-85.5 201.5q0 189 136.5 313.5t361.5 147.5l43 248h170l-45 -246q245 -16 420 -86l-80 -172 q-258 82 -459 82q-152 0 -244 -65.5t-92 -178.5q0 -35 14 -61t34.5 -43.5t65.5 -33.5t85.5 -26.5t115.5 -27.5q65 -15 108.5 -26.5t94.5 -29t83.5 -35.5t65.5 -44t51.5 -57t30 -72t11.5 -91q0 -216 -151 -339.5t-406 -135.5l-47 -256h-170l47 258q-234 19 -451 113z" />
<glyph unicode="%" horiz-adv-x="2224" d="M272 965q0 197 137 327.5t328 130.5q147 0 237.5 -89.5t90.5 -235.5q0 -131 -64 -237.5t-170 -164t-231 -57.5q-147 0 -237.5 89.5t-90.5 236.5zM420 987q0 -95 57 -153t148 -58q118 0 205.5 85.5t87.5 213.5q0 95 -56 153t-147 58q-120 0 -207.5 -85t-87.5 -214zM492 0 l1187 1393h109l-1188 -1393h-108zM1237 297q0 131 64 236.5t170 163t231 57.5q148 0 238 -89t90 -237q0 -99 -37.5 -185.5t-101 -146t-149 -93.5t-179.5 -34q-146 0 -236 90t-90 238zM1384 319q0 -95 56 -152.5t147 -57.5q120 0 207.5 84.5t87.5 212.5q0 95 -57 152.5 t-148 57.5q-119 0 -206 -85t-87 -212z" />
<glyph unicode="&#x26;" horiz-adv-x="1316" d="M51 332q0 141 83 240t239 149q-72 30 -110 91t-38 142q0 201 157 330t404 129q149 0 273 -39l-66 -164q-115 35 -243 35q-151 0 -244.5 -74.5t-93.5 -197.5q0 -176 237 -176h660l-29 -162h-150l-38 -227q-34 -198 -195.5 -318.5t-396.5 -120.5q-210 0 -329.5 98.5 t-119.5 264.5zM238 362q0 -103 77 -164t213 -61q153 0 256 74.5t125 196.5l39 227h-327q-182 0 -282.5 -75t-100.5 -198z" />
<glyph unicode="'" horiz-adv-x="458" d="M238 1071l88 494h209l-127 -494h-170z" />
<glyph unicode="(" horiz-adv-x="686" d="M128 10q-38 269 13 565q51 283 180 524.5t336 465.5l117 -76q-99 -127 -157.5 -211.5t-125.5 -202.5t-110 -245.5t-70 -278.5q-26 -145 -29 -279.5t17 -252.5t51 -218.5t78 -203.5l-143 -74q-119 218 -157 487z" />
<glyph unicode=")" horiz-adv-x="675" d="M-66 -403q99 127 157.5 211.5t125.5 202.5t110 245.5t70 278.5q26 145 29 279.5t-16.5 252.5t-50.5 218.5t-78 203.5l143 74q120 -217 157 -487.5t-14 -565.5q-51 -282 -179.5 -523.5t-336.5 -465.5z" />
<glyph unicode="*" horiz-adv-x="806" d="M170 1014l231 90l-186 162l70 86l182 -160l39 215l110 -21l-38 -212l225 86l37 -105l-230 -88l185 -164l-68 -82l-182 158l-39 -217l-111 18l39 219l-225 -86z" />
<glyph unicode="+" horiz-adv-x="1411" d="M246 582l30 174h390l67 393h182l-69 -393h387l-31 -174h-387l-70 -392h-180l70 392h-389z" />
<glyph unicode="," horiz-adv-x="587" d="M57 -285l113 277q-88 34 -88 117q0 57 41 97t100 40q60 0 102 -40t42 -97q0 -42 -21.5 -90.5t-150.5 -303.5h-138z" />
<glyph unicode="-" horiz-adv-x="1081" d="M221 453h629l33 188h-627z" />
<glyph unicode="." horiz-adv-x="593" d="M88 106q0 58 41 99t100 41q60 0 102 -41t42 -99t-42 -97.5t-102 -39.5q-59 0 -100 39.5t-41 97.5z" />
<glyph unicode="/" horiz-adv-x="1013" d="M-135 -557l1055 2130h198l-1057 -2130h-196z" />
<glyph unicode="0" horiz-adv-x="1540" d="M139 555q0 185 61 347t166 276t252 179.5t314 65.5q247 0 388.5 -159t141.5 -426q0 -185 -60.5 -347t-165 -276.5t-250.5 -180t-312 -65.5q-248 0 -391.5 159.5t-143.5 426.5zM340 580q0 -197 98 -316t267 -119q155 0 283 86t202 239.5t74 342.5q0 197 -98 315.5 t-267 118.5q-117 0 -220 -50.5t-177.5 -138t-118 -212t-43.5 -266.5z" />
<glyph unicode="1" horiz-adv-x="856" d="M168 1229l571 164h58l-246 -1393h-195l211 1174l-383 -103z" />
<glyph unicode="2" horiz-adv-x="1191" d="M39 0l22 129l574 467q148 122 191 164q110 111 125 220q3 21 3 42q0 105 -67 163t-191 58q-75 0 -185.5 -23.5t-227.5 -70.5l-19 166q106 49 234.5 78.5t238.5 29.5q203 0 314.5 -101.5t111.5 -260.5q0 -52 -12.5 -102t-31.5 -92.5t-54.5 -90.5t-67 -84t-83.5 -84 t-90.5 -81t-100.5 -85l-338 -278h649l-30 -164h-965z" />
<glyph unicode="3" horiz-adv-x="1212" d="M20 84l95 154q207 -101 409 -101q173 0 284.5 82t111.5 213q0 92 -83 143.5t-231 51.5h-221l16 92l508 491h-633l31 183h914l-21 -119l-495 -486h24q175 0 276 -89.5t101 -233.5q0 -215 -168.5 -355.5t-450.5 -140.5q-265 0 -467 115z" />
<glyph unicode="4" horiz-adv-x="1372" d="M51 260l27 141l995 992h189l-172 -971h184l-29 -162h-184l-45 -260h-189l45 260h-821zM332 422h571l127 702z" />
<glyph unicode="5" horiz-adv-x="1255" d="M43 86l90 160q222 -105 426 -105q107 0 194.5 38.5t140 110.5t52.5 165q0 96 -79 152t-230 63l-401 18l186 705h825l-33 -183h-645l-98 -356l223 -12q207 -12 323 -105t116 -250q0 -148 -78.5 -267t-215.5 -185t-304 -66q-289 0 -492 117z" />
<glyph unicode="6" horiz-adv-x="1275" d="M92 422q8 199 162 356l537 615h239l-379 -432q50 4 72 4q221 0 347.5 -119t113.5 -318q-9 -162 -95.5 -290.5t-228 -198.5t-311.5 -70q-219 0 -345 125t-112 328zM281 444q-12 -139 69.5 -224t224.5 -85q168 0 287 104.5t131 268.5q12 136 -70 218.5t-227 82.5 q-170 0 -286.5 -102.5t-128.5 -262.5z" />
<glyph unicode="7" horiz-adv-x="1138" d="M184 0l781 1210h-760l31 183h999l-18 -119l-809 -1274h-224z" />
<glyph unicode="8" horiz-adv-x="1318" d="M74 348q9 132 101.5 229.5t262.5 149.5q-95 38 -140.5 111t-37.5 172q9 185 168 299t395 114q205 0 323 -94.5t107 -249.5q-16 -254 -288 -352q125 -39 188 -121t55 -192q-8 -127 -92.5 -229t-228 -159t-320.5 -57q-235 0 -369.5 105.5t-123.5 273.5zM285 381 q-11 -111 73.5 -178.5t237.5 -67.5q167 0 282 78.5t126 200.5q9 97 -77.5 165t-236.5 68q-164 0 -280 -79t-125 -187zM459 1018q-9 -102 58.5 -161.5t191.5 -59.5q143 0 238 72.5t104 191.5q9 89 -60.5 147t-193.5 58q-139 0 -234 -70t-104 -178z" />
<glyph unicode="9" horiz-adv-x="1273" d="M164 864q9 162 95 290t227.5 198.5t312.5 70.5q219 0 344.5 -124.5t111.5 -327.5q-4 -105 -46 -187t-115 -170l-512 -614h-230l361 432q-58 -4 -88 -4q-221 0 -347.5 118.5t-113.5 317.5zM354 885q-12 -136 70 -218.5t227 -82.5q170 0 287 102t129 262q12 139 -70 224 t-227 85q-166 0 -285 -104t-131 -268z" />
<glyph unicode=":" horiz-adv-x="600" d="M88 106q0 58 41 99t100 41q60 0 102 -41t42 -99t-42 -97.5t-102 -39.5q-59 0 -100 39.5t-41 97.5zM225 848q0 58 42 97.5t102 39.5q59 0 100 -39.5t41 -97.5t-41 -97.5t-100 -39.5q-60 0 -102 39.5t-42 97.5z" />
<glyph unicode=";" horiz-adv-x="614" d="M57 -285l113 277q-88 34 -88 117q0 57 41 97t100 40q60 0 102 -40t42 -97q0 -39 -17.5 -81t-112.5 -232q-25 -52 -40 -81h-140zM240 848q0 58 41 97.5t100 39.5q60 0 101.5 -39.5t41.5 -97.5t-41.5 -97.5t-101.5 -39.5q-59 0 -100 39.5t-41 97.5z" />
<glyph unicode="&#x3c;" horiz-adv-x="1122" d="M119 526l35 191l931 403l-30 -192l-711 -307l598 -310l-31 -188z" />
<glyph unicode="=" horiz-adv-x="1439" d="M209 377l31 174h987l-31 -174h-987zM281 778l30 176h987l-30 -176h-987z" />
<glyph unicode="&#x3e;" horiz-adv-x="1124" d="M90 123l31 192l708 308l-598 307l31 190l793 -403l-35 -191z" />
<glyph unicode="?" horiz-adv-x="1017" d="M168 96q0 54 38.5 90.5t92.5 36.5t92.5 -36.5t38.5 -90.5t-38.5 -90.5t-92.5 -36.5t-92.5 36.5t-38.5 90.5zM236 1378q202 45 374 45q194 0 308 -98.5t114 -265.5q0 -137 -70.5 -252t-193 -181.5t-268.5 -66.5h-39l-39 -182h-176l55 342h188q154 0 255.5 92t101.5 227 q0 100 -70 158.5t-192 58.5q-140 0 -346 -34z" />
<glyph unicode="@" horiz-adv-x="2062" d="M88 362q0 146 41 284t113.5 253t175.5 211t224 162.5t261.5 103.5t286.5 37q180 0 328.5 -55.5t248.5 -154.5t154.5 -236.5t54.5 -300.5q0 -160 -40 -287t-110 -206t-160.5 -120t-195.5 -41q-96 0 -151.5 31t-75.5 98q-102 -68 -192.5 -99.5t-190.5 -31.5 q-196 0 -297.5 128t-75.5 339q27 226 178 366t379 140q60 0 116 -2.5t91.5 -5t86 -9t66 -9t67 -11.5t57.5 -10l-107 -596q-18 -104 4 -151.5t97 -47.5q57 0 106.5 16t94.5 54t77 95t51 145t19 198q0 313 -183.5 489.5t-512.5 176.5q-154 0 -301 -47.5t-268.5 -135.5 t-214 -204.5t-144 -261.5t-51.5 -299q0 -186 79 -335t231.5 -237t352.5 -88q213 0 541 72v-94q-330 -78 -557 -78q-229 0 -401.5 98t-262.5 268.5t-90 388.5zM662 436q0 -124 65.5 -199t181.5 -75q152 0 328 112q2 24 10 97l78 438q-117 20 -283 20q-95 0 -170 -33 t-119.5 -89t-67.5 -125t-23 -146z" />
<glyph unicode="A" horiz-adv-x="1550" d="M-37 0l881 1401h186l385 -1401h-217l-82 313h-737l-193 -313h-223zM485 487h584l-172 662z" />
<glyph unicode="B" horiz-adv-x="1384" d="M104 0l246 1393q411 12 539 12q202 0 311 -79t109 -226q0 -142 -88.5 -244.5t-241.5 -140.5q134 -26 207.5 -102t73.5 -185q0 -208 -162.5 -326t-438.5 -118q-261 0 -555 16zM328 166q205 -10 340 -10q190 0 295.5 69.5t105.5 202.5q0 90 -75.5 139t-211.5 49h-374z M436 784h334q156 0 251 72.5t95 194.5q0 180 -278 180q-110 0 -322 -4z" />
<glyph unicode="C" horiz-adv-x="1492" d="M154 582q0 248 113 439t320.5 296.5t477.5 105.5q222 0 465 -73l-68 -176q-232 61 -403 61q-311 0 -504 -174t-193 -451q0 -203 130.5 -322.5t353.5 -119.5q178 0 467 70l8 -181q-291 -88 -518 -88q-298 0 -473.5 166t-175.5 447z" />
<glyph unicode="D" horiz-adv-x="1521" d="M104 0l246 1393q301 16 481 16q287 0 456 -158.5t169 -427.5q0 -182 -68 -340t-183 -266.5t-270 -170.5t-327 -62q-208 0 -504 16zM330 172q150 -6 311 -6q122 0 232.5 46.5t193 128t131.5 201t49 257.5q0 198 -120.5 314t-325.5 116q-99 0 -287 -8z" />
<glyph unicode="E" horiz-adv-x="1296" d="M104 0l246 1393h989l-30 -181h-795l-76 -426h709l-31 -180h-708l-76 -426h794l-32 -180h-990z" />
<glyph unicode="F" horiz-adv-x="1226" d="M104 0l246 1393h965l-33 -181h-768l-84 -479h682l-31 -180h-684l-96 -553h-197z" />
<glyph unicode="G" horiz-adv-x="1650" d="M154 573q0 252 110 445.5t311 299t463 105.5q255 0 494 -69l-72 -178q-263 59 -442 59q-296 0 -477 -173t-181 -456q0 -201 125.5 -323.5t329.5 -122.5q220 0 465 73l63 367h-528l31 180h715l-115 -678q-366 -133 -666 -133q-278 0 -452 169.5t-174 434.5z" />
<glyph unicode="H" horiz-adv-x="1550" d="M104 0l246 1393h197l-109 -617h781l108 617h195l-246 -1393h-195l105 596h-780l-105 -596h-197z" />
<glyph unicode="I" horiz-adv-x="573" d="M104 0l246 1393h197l-246 -1393h-197z" />
<glyph unicode="J" horiz-adv-x="1163" d="M-35 55l70 174q217 -67 401 -67q140 0 239 96.5t128 263.5l153 871h199l-154 -871q-47 -265 -199.5 -409t-385.5 -144q-118 0 -219.5 19.5t-231.5 66.5z" />
<glyph unicode="K" horiz-adv-x="1421" d="M104 0l246 1393h197l-117 -656h125l690 656h248l-707 -678l498 -715h-229l-396 549h-262l-96 -549h-197z" />
<glyph unicode="L" horiz-adv-x="1208" d="M104 0l246 1393h197l-215 -1217h755l-32 -176h-951z" />
<glyph unicode="M" horiz-adv-x="1918" d="M84 0l326 1393h184l319 -1157l729 1157h191l-166 -1393h-192l112 961l-622 -961h-177l-282 961l-232 -961h-190z" />
<glyph unicode="N" horiz-adv-x="1595" d="M104 0l246 1393h174l660 -1071l190 1071h195l-246 -1393h-174l-660 1065l-190 -1065h-195z" />
<glyph unicode="O" horiz-adv-x="1724" d="M154 573q0 247 115 441.5t315.5 301.5t449.5 107q284 0 453.5 -165.5t169.5 -438.5q0 -243 -117.5 -438.5t-318.5 -303.5t-445 -108q-282 0 -452 166t-170 438zM362 600q0 -201 123 -324.5t324 -123.5q131 0 249 48t203.5 132t136 204t50.5 257q0 202 -122 324t-325 122 q-181 0 -326.5 -80t-229 -226.5t-83.5 -332.5z" />
<glyph unicode="P" horiz-adv-x="1312" d="M104 0l246 1393q294 16 490 16q222 0 352.5 -107t130.5 -294q0 -160 -85.5 -287t-234.5 -196.5t-333 -69.5h-289l-80 -455h-197zM412 631h309q173 0 290 98t117 252q0 118 -81.5 183t-219.5 65q-163 0 -311 -8z" />
<glyph unicode="Q" horiz-adv-x="1724" d="M154 573q0 247 115 441.5t315.5 301.5t449.5 107q284 0 453.5 -165.5t169.5 -438.5q0 -280 -153 -492t-404 -302l252 -363h-244l-221 313q-55 -6 -111 -6q-282 0 -452 166t-170 438zM362 600q0 -201 123 -324.5t324 -123.5q132 0 250 48t203.5 132t135.5 204t50 257 q0 202 -122 324t-325 122q-181 0 -326.5 -80t-229 -226.5t-83.5 -332.5z" />
<glyph unicode="R" horiz-adv-x="1357" d="M106 0l244 1393q250 12 488 12q223 0 349 -98.5t126 -280.5q0 -177 -102.5 -307t-278.5 -193l293 -526h-238l-258 479q-35 -2 -106 -2h-238l-84 -477h-195zM416 651h309q168 0 280.5 96t112.5 250q0 114 -81 173t-224 59q-138 0 -297 -6z" />
<glyph unicode="S" horiz-adv-x="1370" d="M53 86l80 182q261 -116 522 -116q166 0 268.5 66t102.5 183q0 27 -6.5 50.5t-22 42t-31.5 33t-44 27t-49 21t-57.5 18t-59 14.5t-64.5 14t-63 14q-199 44 -285 113.5t-86 201.5q0 209 166 337t428 128q126 0 263 -25.5t231 -62.5l-80 -172q-258 82 -459 82 q-152 0 -244 -65.5t-92 -178.5q0 -35 14 -61t34.5 -43.5t65.5 -33.5t85.5 -26.5t115.5 -27.5q65 -15 108.5 -26.5t94.5 -29t83.5 -35.5t65.5 -44t51.5 -57t30 -72t11.5 -91q0 -229 -169 -353t-450 -124q-134 0 -282.5 30t-276.5 87z" />
<glyph unicode="T" horiz-adv-x="1394" d="M201 1212l30 181h1256l-33 -181h-528l-215 -1212h-195l215 1212h-530z" />
<glyph unicode="U" horiz-adv-x="1560" d="M186 578l144 815h198l-143 -815q-10 -53 -9 -100q0 -125 67 -208q93 -114 280 -114q186 0 318.5 114t166.5 308l146 815h198l-145 -815q-47 -275 -239 -442t-466 -167q-278 -1 -422 165q-107 123 -106 310q0 63 12 134z" />
<glyph unicode="V" horiz-adv-x="1611" d="M225 1393h224l313 -1131l723 1131h225l-891 -1393h-190z" />
<glyph unicode="W" horiz-adv-x="2168" d="M225 1393h205l166 -1092l563 1092h170l174 -1090l555 1090h209l-715 -1393h-186l-174 1063l-557 -1063h-186z" />
<glyph unicode="X" horiz-adv-x="1474" d="M-31 0l684 702l-420 691h240l326 -547l506 547h260l-670 -715l438 -678h-229l-352 541l-527 -541h-256z" />
<glyph unicode="Y" horiz-adv-x="1456" d="M209 1393h219l330 -705l583 705h226l-736 -910l-86 -483h-208l86 483z" />
<glyph unicode="Z" horiz-adv-x="1366" d="M37 0l20 123l1012 1089h-790l32 181h1080l-21 -123l-999 -1090h813l-31 -180h-1116z" />
<glyph unicode="[" horiz-adv-x="702" d="M-25 -469l355 2011h477l-31 -180h-289l-290 -1651h288l-32 -180h-478z" />
<glyph unicode="\" horiz-adv-x="1013" d="M221 1573h193l428 -2130h-193z" />
<glyph unicode="]" horiz-adv-x="716" d="M-86 -469l33 180h289l290 1651h-288l30 180h477l-354 -2011h-477z" />
<glyph unicode="^" horiz-adv-x="858" d="M119 922l391 471h158l227 -471h-186l-146 303l-254 -303h-190z" />
<glyph unicode="_" horiz-adv-x="1314" d="M-78 -399l29 166h1163l-29 -166h-1163z" />
<glyph unicode="`" horiz-adv-x="1228" d="M561 1462h250l98 -301h-168z" />
<glyph unicode="a" horiz-adv-x="1255" d="M98 451q28 239 189 387.5t389 148.5q213 0 498 -47l-164 -940h-189l15 78q-185 -109 -355 -109q-201 1 -306 133q-83 105 -83 261q0 42 6 88zM279 410q0 -127 68.5 -204t189.5 -77q152 0 325 111l101 567q-151 22 -291 22q-175 0 -284 -116t-109 -303z" />
<glyph unicode="b" d="M88 20l252 1434h188l-88 -502q137 35 312 35q207 0 313 -108.5t106 -298.5q0 -267 -168 -439t-440 -172q-79 0 -124.5 1.5t-139 13.5t-211.5 36zM299 154q140 -25 270 -25q183 0 299.5 119t116.5 305q0 128 -70 202t-217 74q-139 0 -286 -36z" />
<glyph unicode="c" horiz-adv-x="1067" d="M92 395q0 129 49.5 240.5t135 189t202.5 122t248 44.5q164 0 326 -57l-54 -150q-171 41 -292 41q-181 0 -302.5 -112.5t-121.5 -290.5q0 -130 80.5 -204.5t216.5 -74.5q131 0 323 50l2 -162q-196 -62 -362 -62q-205 0 -328 116.5t-123 309.5z" />
<glyph unicode="d" horiz-adv-x="1257" d="M92 385q0 264 160 433t422 169q188 0 315 -35l88 502h187l-252 -1434q-132 -25 -234.5 -36.5t-149 -13t-147.5 -1.5q-181 0 -285 113.5t-104 302.5zM279 410q0 -127 67.5 -204t188.5 -77h17q54 0 84 1t87 6.5t125 17.5l110 639q-125 36 -288 36q-98 0 -175 -35 t-123 -94.5t-69.5 -133t-23.5 -156.5z" />
<glyph unicode="e" horiz-adv-x="1159" d="M94 424q9 166 92.5 296t216 199.5t287.5 69.5q204 -1 311 -119q83 -92 83 -233q0 -41 -7 -86q-13 -73 -37 -143h-753q0 -133 70.5 -197t215.5 -64q118 0 355 54l6 -162q-227 -70 -385 -70t-265.5 59.5t-153.5 161.5q-38 83 -38 188q0 22 2 46zM305 553h600q4 31 4 59 q0 94 -49 152q-64 76 -192 76q-130 0 -227 -78t-136 -209z" />
<glyph unicode="f" horiz-adv-x="804" d="M55 788l31 168h248l35 201q30 178 149 280.5t285 102.5q78 0 158 -22l-60 -160q-59 12 -121 12q-85 0 -146 -57t-79 -162l-35 -195h363l-29 -168h-362l-140 -788h-188l139 788h-248z" />
<glyph unicode="g" horiz-adv-x="1239" d="M43 -446l59 155q190 -53 304 -53q160 0 269 90.5t140 245.5q-147 -23 -338 -23q-201 0 -305 133q-82 104 -82 261q0 42 6 88q28 239 188 387.5t388 148.5q231 0 499 -47l-165 -940q-39 -228 -205.5 -370t-419.5 -142q-167 0 -338 66zM276 410q0 -127 67.5 -204t188.5 -77 h17q142 0 269 21l26 4l114 653q-151 22 -290 22q-174 0 -283 -116t-109 -303z" />
<glyph unicode="h" horiz-adv-x="1251" d="M82 0l256 1454h188l-88 -504q159 37 355 37q183 0 271 -102q66 -76 66 -192q0 -41 -8 -87l-106 -606h-189l99 555q6 35 6 65q0 76 -38 126q-54 70 -169 71q-162 0 -317 -39l-138 -778h-188z" />
<glyph unicode="i" horiz-adv-x="524" d="M84 0l170 956h188l-170 -956h-188zM266 1288q0 57 37.5 94t93.5 37q55 0 92 -37.5t37 -93.5q0 -54 -37.5 -90.5t-91.5 -36.5q-56 0 -93.5 36.5t-37.5 90.5z" />
<glyph unicode="j" horiz-adv-x="503" d="M-244 -528l15 166q135 17 191 70t79 186l188 1062h189l-185 -1040q-20 -115 -51 -192.5t-85.5 -136t-138 -86.5t-202.5 -29zM246 1288q0 56 37 93.5t92 37.5t93 -37.5t38 -93.5q0 -54 -38.5 -90.5t-92.5 -36.5t-91.5 36.5t-37.5 90.5z" />
<glyph unicode="k" horiz-adv-x="1183" d="M94 0l258 1454h187l-156 -883h104l431 385h245l-473 -434l350 -522h-211l-278 397h-199l-69 -397h-189z" />
<glyph unicode="l" horiz-adv-x="546" d="M94 0l258 1454h187l-256 -1454h-189z" />
<glyph unicode="m" horiz-adv-x="1906" d="M98 0l164 936q82 19 224 34.5t266 16.5q180 0 258 -72q201 72 432 72q186 0 270 -94q60 -67 61 -185q0 -48 -10 -104l-106 -604h-189l99 557q8 43 8 79q0 181 -199 181q-140 0 -291 -45q3 -24 3 -52q0 -47 -9 -108l-108 -612h-189l101 563q8 45 8 82q0 73 -32 113 q-48 60 -175 59q-129 -3 -258 -22l-139 -795h-189z" />
<glyph unicode="n" horiz-adv-x="1282" d="M98 0l166 940q95 19 254.5 33t290.5 14q181 0 271 -103q66 -77 67 -194q0 -41 -8 -86l-107 -604h-188l98 557q6 35 6 65q0 76 -38 126q-54 70 -169 69q-143 0 -315 -24l-139 -793h-189z" />
<glyph unicode="o" d="M92 397q0 172 83 309.5t227 214t319 76.5q208 0 329 -116t121 -312q0 -171 -83.5 -310t-227.5 -216.5t-319 -77.5q-206 0 -327.5 118t-121.5 314zM285 424q0 -131 76.5 -209t209.5 -78q171 0 288.5 116t117.5 290q0 130 -77 206t-210 76q-171 0 -288 -114t-117 -287z" />
<glyph unicode="p" horiz-adv-x="1269" d="M14 -467l250 1407q306 47 516 47q215 0 319 -128q84 -103 84 -264q0 -39 -5 -81q-25 -242 -183.5 -393.5t-382.5 -151.5q-188 0 -327 23l-82 -459h-189zM313 154q67 -13 127.5 -18.5t85 -6t90.5 -0.5q164 0 272.5 121t108.5 305q0 125 -68 199.5t-202 74.5 q-139 0 -299 -22z" />
<glyph unicode="q" horiz-adv-x="1255" d="M96 451q30 247 187.5 391.5t429.5 144.5q238 0 458 -47l-247 -1407h-187l80 459q-147 -23 -338 -23q-201 0 -307 133q-82 103 -82 259q0 43 6 90zM276 410q0 -127 69 -204t190 -77q141 0 235 13q36 5 76 12l115 653q-151 22 -291 22q-175 0 -284.5 -116t-109.5 -303z" />
<glyph unicode="r" horiz-adv-x="815" d="M100 0l162 938q297 53 572 53l-31 -184q-202 0 -377 -16l-137 -791h-189z" />
<glyph unicode="s" horiz-adv-x="1062" d="M53 59l68 162q202 -90 371 -90q107 0 172 37t65 104q0 24 -13 43.5t-32.5 32t-53.5 24t-62.5 18.5t-72.5 17q-21 5 -32 7q-135 28 -204 82.5t-69 152.5q0 161 118.5 249.5t320.5 88.5q101 0 201 -20t165 -49l-71 -156q-72 31 -164.5 49t-163.5 18q-97 0 -154 -39 t-57 -106q0 -27 12.5 -45.5t47.5 -32.5t58.5 -20.5t84.5 -19.5l7.5 -1.5t7 -1.5t7.5 -2q75 -17 127 -35t95 -45.5t64.5 -67t21.5 -91.5q0 -171 -127 -262t-334 -91q-208 0 -404 90z" />
<glyph unicode="t" horiz-adv-x="911" d="M90 788l31 168h227l66 383h188l-67 -383h329l-30 -168h-328l-76 -430q-8 -43 -8 -78q0 -58 22 -90q34 -54 134 -53q64 0 180 17l-4 -156q-139 -29 -240 -29q-168 0 -238 94q-47 63 -47 168q0 51 11 111l77 446h-227z" />
<glyph unicode="u" d="M141 352l105 604h188l-100 -565q-7 -40 -6 -73q0 -187 207 -187q126 0 315 23l141 802h189l-164 -936q-95 -22 -253.5 -36.5t-293.5 -14.5q-187 0 -275 95q-63 68 -63 185q0 47 10 103z" />
<glyph unicode="v" horiz-adv-x="1251" d="M154 956h200l219 -733l480 733h213l-625 -956h-201z" />
<glyph unicode="w" horiz-adv-x="1681" d="M162 956h190l115 -698l383 698h149l127 -702l369 702h195l-502 -956h-184l-123 684l-371 -684h-182z" />
<glyph unicode="x" horiz-adv-x="1146" d="M-20 0l473 479l-299 477h223l217 -344l342 344h225l-467 -477l301 -479h-217l-225 352l-352 -352h-221z" />
<glyph unicode="y" horiz-adv-x="1288" d="M147 -467l349 526l-346 902h208l271 -701l465 701h215l-959 -1428h-203z" />
<glyph unicode="z" horiz-adv-x="1021" d="M12 0l19 94l667 701h-530l31 163h796l-20 -106l-653 -688h559l-29 -164h-840z" />
<glyph unicode="{" horiz-adv-x="745" d="M78 444l33 166q106 0 157.5 40t71.5 149l70 389q33 188 140 276t312 88l-35 -170q-105 0 -158 -44.5t-73 -155.5l-72 -404q-20 -114 -59.5 -169.5t-136.5 -86.5q81 -25 103 -86.5t1 -173.5l-70 -403q-20 -111 15.5 -149t152.5 -38l-32 -170q-386 0 -320 379l70 389 q6 38 7 65t-6 47t-19 31.5t-34.5 18.5t-49.5 9.5t-68 2.5z" />
<glyph unicode="|" horiz-adv-x="645" d="M94 -319l332 1880h176l-332 -1880h-176z" />
<glyph unicode="}" horiz-adv-x="745" d="M-98 -498l32 170q105 0 159.5 46t74.5 155l72 403q20 114 59.5 169.5t134.5 86.5q-79 25 -101.5 87.5t-2.5 175.5l71 401q20 111 -15.5 148.5t-152.5 37.5l33 170q387 0 318 -378l-68 -390q-20 -109 15 -141.5t155 -32.5l-33 -166q-107 0 -159 -39.5t-72 -148.5l-68 -389 q-34 -189 -141 -277t-311 -88z" />
<glyph unicode="~" horiz-adv-x="925" d="M92 604q12 72 45.5 126t76.5 82.5t91.5 40.5t93.5 4.5t80 -30.5l109 -79q51 -33 94.5 -10.5t52.5 81.5h166q-15 -90 -61.5 -151.5t-104 -84.5t-116.5 -20t-103 33l-108 80q-50 33 -95.5 9t-54.5 -81h-166z" />
<glyph unicode="&#xa1;" horiz-adv-x="555" d="M8 -430l189 1016h188l-168 -1016h-209zM203 866q0 55 37.5 92t93.5 37q54 0 91.5 -37t37.5 -92q0 -52 -37.5 -88.5t-91.5 -36.5q-55 0 -93 36t-38 89z" />
<glyph unicode="&#xa2;" horiz-adv-x="1028" d="M76 416q0 235 152 396.5t388 191.5l46 249h169l-43 -245q127 -9 250 -54l-55 -153q-166 43 -293 43q-179 0 -299.5 -113t-120.5 -289q0 -128 80.5 -206t214.5 -78q123 0 324 49v-156q-138 -45 -281 -55l-43 -246h-170l43 248q-167 22 -264.5 134t-97.5 284z" />
<glyph unicode="&#xa3;" horiz-adv-x="1249" d="M2 0l31 164h141l70 409h-142l31 164h141l45 258q34 193 189.5 310.5t376.5 117.5q173 0 358 -45l-57 -157q-192 34 -336 34q-133 0 -225.5 -75.5t-116.5 -194.5l-45 -248h455l-31 -164h-453l-72 -409h756l-28 -164h-1088z" />
<glyph unicode="&#xa5;" horiz-adv-x="1415" d="M127 166l25 141h426l26 148h-426l23 139h358l-371 799h222l331 -705l584 705h221l-649 -799h367l-25 -139h-436l-27 -148h436l-24 -141h-436l-31 -166h-197l29 166h-426z" />
<glyph unicode="&#xa6;" horiz-adv-x="645" d="M94 -322l146 836h176l-146 -836h-176zM276 723l148 836h176l-147 -836h-177z" />
<glyph unicode="&#xa7;" horiz-adv-x="1112" d="M27 -211l79 145q165 -73 314 -73q123 0 193.5 46t70.5 132q0 15 -3 27t-11 23.5t-15.5 20.5t-24 19t-28 16.5t-36 17t-39.5 17t-46.5 19t-50.5 20.5q-86 34 -142 63t-103 67t-69 86.5t-22 109.5q0 68 19.5 124.5t56.5 99.5t76 73.5t92 60.5q-74 65 -74 164 q0 160 126.5 258t342.5 98q98 0 198.5 -21.5t172.5 -58.5l-82 -143q-170 72 -313 72q-121 0 -192 -46t-71 -132q0 -39 29.5 -68.5t64 -46t120.5 -49.5q25 -10 38 -15q87 -35 143 -64t103 -67.5t68.5 -86t21.5 -109.5q0 -68 -19 -124t-55.5 -99t-75 -73.5t-91.5 -60.5 q73 -70 73 -163q0 -161 -127.5 -260t-343.5 -99q-95 0 -195 22t-173 58zM266 596q0 -33 14 -60.5t34 -48t59.5 -43t73 -38t92.5 -39.5q121 -53 149 -68q86 55 130 110.5t44 129.5q0 33 -14 60.5t-33 47.5t-60 43t-72.5 37.5t-92.5 40.5q-105 44 -148 68q-88 -58 -132 -112.5 t-44 -127.5z" />
<glyph unicode="&#xa8;" horiz-adv-x="1228" d="M385 1286q0 51 36 85t89 34q51 0 87 -34t36 -85t-36 -86t-87 -35q-53 0 -89 35t-36 86zM819 1286q0 51 36 85t89 34q51 0 87 -34t36 -85t-36 -86t-87 -35q-53 0 -89 35t-36 86z" />
<glyph unicode="&#xa9;" horiz-adv-x="1710" d="M147 696q0 205 97 371.5t268 261t381 94.5t381 -94.5t268.5 -261t97.5 -371.5t-97.5 -371.5t-268.5 -261t-381 -94.5t-381 94.5t-268 261t-97 371.5zM244 696q0 -133 50 -251t136 -202t206.5 -133t256.5 -49t257 49t207.5 133t136.5 202t50 251t-50 251t-136.5 202 t-207.5 133t-257 49t-256.5 -49t-206.5 -133t-136 -202t-50 -251zM483 641q0 208 138.5 339.5t361.5 131.5q120 0 258 -49l-43 -121q-152 37 -231 37q-148 0 -240 -89.5t-92 -230.5q0 -103 68 -160t188 -57q91 0 252 35l2 -119q-153 -49 -281 -49q-174 0 -277.5 89 t-103.5 243z" />
<glyph unicode="&#xaa;" horiz-adv-x="948" d="M197 887q0 234 364 252l234 10l4 14q8 68 -25.5 98.5t-120.5 30.5q-107 0 -299 -24l6 125q182 30 314 30q157 0 221 -63t41 -195l-76 -428q-238 -37 -411 -37q-123 0 -187.5 48.5t-64.5 138.5zM340 909q0 -90 158 -90q74 0 241 21l35 198l-250 -12q-97 -4 -140.5 -33.5 t-43.5 -83.5z" />
<glyph unicode="&#xab;" horiz-adv-x="1155" d="M100 506l449 407l92 -98l-350 -315l239 -310l-116 -98zM528 506l449 407l92 -98l-350 -315l239 -310l-118 -98z" />
<glyph unicode="&#xad;" horiz-adv-x="1081" d="M221 453h629l33 188h-627z" />
<glyph unicode="&#xae;" horiz-adv-x="1712" d="M154 696q0 205 97.5 371.5t268.5 261t381 94.5t381 -94.5t268 -261t97 -371.5t-97 -371.5t-268 -261t-381 -94.5t-381 94.5t-268.5 261t-97.5 371.5zM250 696q0 -133 50 -251t136.5 -202t207.5 -133t257 -49q135 0 255.5 49t207 133t136.5 202t50 251t-50 251t-136.5 202 t-207 133t-255.5 49q-136 0 -257 -49t-207.5 -133t-136.5 -202t-50 -251zM551 326l139 786q189 6 293 6q146 0 221.5 -70t52.5 -196q-15 -82 -69 -142.5t-137 -93.5l163 -290h-167l-138 256q-5 0 -14.5 -1t-13.5 -1h-146l-45 -254h-139zM756 700h168q71 0 128.5 43.5 t67.5 110.5q13 70 -28.5 105.5t-124.5 35.5q-50 0 -160 -4z" />
<glyph unicode="&#xaf;" horiz-adv-x="1228" d="M465 1231l29 153h561l-27 -153h-563z" />
<glyph unicode="&#xb0;" horiz-adv-x="980" d="M231 1026q0 173 117.5 285t296.5 112q136 0 215.5 -76.5t79.5 -203.5q0 -174 -119 -287t-297 -113q-135 0 -214 77t-79 206zM381 1051q0 -74 46 -119t124 -45q101 0 169 65.5t68 165.5q0 74 -45 119t-122 45q-102 0 -171 -65.5t-69 -165.5z" />
<glyph unicode="&#xb1;" horiz-adv-x="1411" d="M158 82l28 176h959l-29 -176h-958zM258 662l31 174h387l53 305h180l-53 -305h391l-30 -174h-392l-53 -304h-180l53 304h-387z" />
<glyph unicode="&#xb2;" horiz-adv-x="692" d="M82 614l16 99l334 256q42 31 63 48t44.5 42.5t33 51t9.5 56.5q0 105 -138 105q-95 0 -225 -43l-10 127q132 53 280 53q125 0 188.5 -58.5t63.5 -146.5q0 -51 -18 -97t-57.5 -91.5t-79.5 -81t-105 -86.5l-141 -107h342l-23 -127h-577z" />
<glyph unicode="&#xb3;" horiz-adv-x="712" d="M72 664l73 114q116 -53 230 -53q86 0 142 36.5t56 94.5q0 86 -133 86h-174l13 70l270 250h-340l22 131h545l-16 -88l-273 -240l17 -2q101 -6 158 -56t57 -126q0 -124 -93 -203.5t-264 -79.5q-180 0 -290 66z" />
<glyph unicode="&#xb4;" horiz-adv-x="1228" d="M547 1161l205 301h254l-271 -301h-188z" />
<glyph unicode="&#xb6;" horiz-adv-x="1540" d="M135 848q0 257 165 409t450 152q142 0 420 -5t378 -11l-284 -1610h-195l254 1434q-111 6 -240 6l-256 -1440h-194l119 672h-172q-213 0 -329 106t-116 287zM330 872q0 -113 66.5 -177t195.5 -64h192l105 596l-191 2q-180 0 -274 -94.5t-94 -262.5z" />
<glyph unicode="&#xb7;" horiz-adv-x="591" d="M164 532q0 58 41 98t100 40q60 0 102 -40t42 -98t-42 -97.5t-102 -39.5q-59 0 -100 39.5t-41 97.5z" />
<glyph unicode="&#xb8;" horiz-adv-x="1228" d="M293 -422l153 320h183l-178 -320h-158z" />
<glyph unicode="&#xb9;" horiz-adv-x="589" d="M78 614l24 129h168l84 471l-180 -49l-8 131l323 97h41l-114 -650h192l-24 -129h-506z" />
<glyph unicode="&#xba;" horiz-adv-x="935" d="M186 1004q0 120 61.5 216.5t164.5 149.5t225 53q145 0 232 -83t87 -220q0 -182 -130.5 -303t-317.5 -121q-145 0 -233.5 85t-88.5 223zM338 1024q0 -87 53.5 -140t138.5 -53q113 0 194 77t81 194q0 85 -53.5 136.5t-139.5 51.5q-112 0 -193 -75t-81 -191z" />
<glyph unicode="&#xbb;" horiz-adv-x="1155" d="M78 190l350 316l-238 311l117 96l314 -413l-449 -408zM506 190l350 316l-238 311l117 96l314 -413l-451 -408z" />
<glyph unicode="&#xbc;" horiz-adv-x="1734" d="M158 614l24 129h168l84 471l-180 -49l-8 131l323 97h41l-114 -650h192l-24 -129h-506zM291 0l1190 1393h108l-1190 -1393h-108zM868 170l19 102l551 506h151l-84 -483h119l-22 -125h-119l-29 -170h-145l28 170h-469zM1079 295h283l55 317z" />
<glyph unicode="&#xbd;" horiz-adv-x="1789" d="M131 614l25 129h168l84 471l-181 -49l-8 131l324 97h41l-115 -650h193l-25 -129h-506zM252 0l1188 1393h108l-1188 -1393h-108zM1034 0l19 98l333 256q42 31 62 48t44.5 43t34 51.5t9.5 56.5q0 104 -139 104q-93 0 -226 -43l-10 127q134 54 283 54q125 0 187.5 -58 t62.5 -147q0 -51 -18 -97t-57.5 -92t-78.5 -81t-104 -87l-144 -106h344l-22 -127h-580z" />
<glyph unicode="&#xbe;" horiz-adv-x="1845" d="M139 664l74 114q116 -53 229 -53q86 0 142.5 36.5t56.5 94.5q0 86 -133 86h-174l12 70l270 250h-340l23 131h545l-17 -88l-272 -240l16 -2q101 -6 158 -56t57 -126q0 -124 -92.5 -203.5t-263.5 -79.5q-181 0 -291 66zM346 0l1190 1393h109l-1190 -1393h-109zM940 170 l18 102l551 506h152l-84 -483h119l-23 -125h-119l-30 -170h-144l29 170h-469zM1149 295h283l57 317z" />
<glyph unicode="&#xbf;" horiz-adv-x="1040" d="M16 -33q0 137 71 252t193.5 181.5t268.5 66.5h39l39 182h176l-55 -342h-189q-154 0 -255 -91.5t-101 -227.5q0 -100 69.5 -158.5t190.5 -58.5q155 0 348 36l2 -159q-202 -45 -375 -45q-194 0 -308 98.5t-114 265.5zM618 930q0 55 38 91t94 36q55 0 92 -36t37 -91 q0 -54 -37.5 -89.5t-91.5 -35.5q-56 0 -94 35.5t-38 89.5z" />
<glyph unicode="&#xc0;" horiz-adv-x="1550" d="M-37 0l883 1401h184l385 -1401h-215l-82 313h-737l-193 -313h-225zM485 487h584l-174 662zM694 1831h248l113 -303h-170z" />
<glyph unicode="&#xc1;" horiz-adv-x="1550" d="M-37 0l883 1401h184l385 -1401h-215l-82 313h-737l-193 -313h-225zM485 487h584l-174 662zM889 1528l231 303h254l-284 -303h-201z" />
<glyph unicode="&#xc2;" horiz-adv-x="1550" d="M-37 0l883 1401h184l385 -1401h-215l-82 313h-737l-193 -313h-225zM485 487h584l-174 662zM635 1528l307 303h168l201 -303h-185l-116 182l-185 -182h-190z" />
<glyph unicode="&#xc3;" horiz-adv-x="1550" d="M-37 0l883 1401h184l385 -1401h-215l-82 313h-737l-193 -313h-225zM485 487h584l-174 662zM639 1569q14 79 56 134t93.5 75t104 18t90.5 -27l96 -69q43 -29 79.5 -9.5t45.5 70.5h154q-14 -79 -56 -134t-93.5 -75.5t-104 -18.5t-90.5 28l-96 69q-41 28 -79 8.5t-46 -69.5 h-154z" />
<glyph unicode="&#xc4;" horiz-adv-x="1550" d="M-37 0l883 1401h184l385 -1401h-215l-82 313h-737l-193 -313h-225zM485 487h584l-174 662zM649 1675q0 51 36 85t87 34q53 0 89 -34t36 -85t-36 -85t-89 -34q-51 0 -87 34t-36 85zM1083 1675q0 51 36 85t87 34q53 0 88 -34t35 -85t-35 -85t-88 -34q-51 0 -87 34t-36 85z " />
<glyph unicode="&#xc5;" horiz-adv-x="1550" d="M-37 0l883 1401h184l385 -1401h-215l-82 313h-737l-193 -313h-225zM485 487h584l-174 662zM762 1686q0 95 66.5 156t166.5 61q88 0 142.5 -52t54.5 -137q0 -95 -66.5 -157t-167.5 -62q-89 0 -142.5 53t-53.5 138zM872 1692q0 -43 27.5 -69t69.5 -26q48 0 80 31t32 80 q0 43 -26.5 68.5t-69.5 25.5q-48 0 -80.5 -31.5t-32.5 -78.5z" />
<glyph unicode="&#xc6;" horiz-adv-x="2240" d="M-27 0l1266 1393h1045l-31 -181h-795l-76 -426h709l-33 -180h-706l-76 -426h792l-30 -180h-989l53 307h-606l-279 -307h-244zM651 487h484l118 666z" />
<glyph unicode="&#xc7;" horiz-adv-x="1492" d="M154 582q0 248 113 439t320.5 296.5t477.5 105.5q222 0 465 -73l-68 -176q-232 61 -403 61q-311 0 -504 -174t-193 -451q0 -203 130.5 -322.5t353.5 -119.5q178 0 467 70l8 -181q-291 -88 -516 -88q-299 0 -475 166t-176 447zM496 -422l153 320h182l-178 -320h-157z" />
<glyph unicode="&#xc8;" horiz-adv-x="1296" d="M104 0l246 1393h989l-30 -181h-795l-76 -426h709l-31 -180h-708l-76 -426h792l-30 -180h-990zM584 1831h247l113 -303h-170z" />
<glyph unicode="&#xc9;" horiz-adv-x="1296" d="M104 0l246 1393h989l-30 -181h-795l-76 -426h709l-31 -180h-708l-76 -426h792l-30 -180h-990zM776 1528l232 303h254l-285 -303h-201z" />
<glyph unicode="&#xca;" horiz-adv-x="1296" d="M104 0l246 1393h989l-30 -181h-795l-76 -426h709l-31 -180h-708l-76 -426h792l-30 -180h-990zM524 1528l307 303h168l201 -303h-184l-117 182l-184 -182h-191z" />
<glyph unicode="&#xcb;" horiz-adv-x="1296" d="M104 0l246 1393h989l-30 -181h-795l-76 -426h709l-31 -180h-708l-76 -426h792l-30 -180h-990zM539 1675q0 51 36 85t87 34q53 0 88.5 -34t35.5 -85t-35.5 -85t-88.5 -34q-51 0 -87 34t-36 85zM973 1675q0 51 36 85t87 34q53 0 88 -34t35 -85t-35 -85t-88 -34 q-51 0 -87 34t-36 85z" />
<glyph unicode="&#xcc;" horiz-adv-x="573" d="M104 0l246 1393h195l-246 -1393h-195zM193 1831h247l113 -303h-170z" />
<glyph unicode="&#xcd;" horiz-adv-x="573" d="M104 0l246 1393h195l-246 -1393h-195zM387 1528l231 303h254l-284 -303h-201z" />
<glyph unicode="&#xce;" horiz-adv-x="573" d="M104 0l246 1393h195l-246 -1393h-195zM133 1528l307 303h168l201 -303h-184l-117 182l-184 -182h-191z" />
<glyph unicode="&#xcf;" horiz-adv-x="573" d="M104 0l246 1393h195l-246 -1393h-195zM147 1675q0 51 36 85t87 34q53 0 89 -34t36 -85t-36 -85t-89 -34q-51 0 -87 34t-36 85zM582 1675q0 51 36 85t87 34q52 0 87 -34t35 -85t-35 -85t-87 -34q-51 0 -87 34t-36 85z" />
<glyph unicode="&#xd0;" horiz-adv-x="1523" d="M61 596l33 180h148l108 617q301 16 481 16q287 0 456 -158.5t169 -427.5q0 -182 -68 -340t-183 -266.5t-270 -170.5t-327 -62q-208 0 -504 16l105 596h-148zM330 172q150 -6 311 -6q122 0 232.5 46.5t193 128t131.5 201t49 257.5q0 198 -120.5 314t-325.5 116 q-99 0 -287 -8l-78 -445h312l-31 -180h-314z" />
<glyph unicode="&#xd1;" horiz-adv-x="1595" d="M104 0l246 1393h174l660 -1071l190 1071h195l-246 -1393h-174l-660 1065l-190 -1065h-195zM635 1569q14 79 56 134t93.5 75t104 18t90.5 -27l96 -69q43 -29 79.5 -9.5t45.5 70.5h154q-14 -79 -56 -134t-93.5 -75.5t-104 -18.5t-90.5 28l-97 69q-41 28 -79 8.5t-46 -69.5 h-153z" />
<glyph unicode="&#xd2;" horiz-adv-x="1724" d="M154 573q0 247 115 441.5t315.5 301.5t449.5 107q284 0 453.5 -165.5t169.5 -438.5q0 -243 -117.5 -438.5t-318.5 -303.5t-445 -108q-282 0 -452 166t-170 438zM362 600q0 -201 123 -324.5t324 -123.5q132 0 250 48t203.5 132t135.5 204t50 257q0 202 -122 324t-325 122 q-181 0 -326.5 -80t-229 -226.5t-83.5 -332.5zM768 1831h248l112 -303h-170z" />
<glyph unicode="&#xd3;" horiz-adv-x="1724" d="M154 573q0 247 115 441.5t315.5 301.5t449.5 107q284 0 453.5 -165.5t169.5 -438.5q0 -243 -117.5 -438.5t-318.5 -303.5t-445 -108q-282 0 -452 166t-170 438zM362 600q0 -201 123 -324.5t324 -123.5q132 0 250 48t203.5 132t135.5 204t50 257q0 202 -122 324t-325 122 q-181 0 -326.5 -80t-229 -226.5t-83.5 -332.5zM961 1528l231 303h254l-285 -303h-200z" />
<glyph unicode="&#xd4;" horiz-adv-x="1724" d="M154 573q0 247 115 441.5t315.5 301.5t449.5 107q284 0 453.5 -165.5t169.5 -438.5q0 -243 -117.5 -438.5t-318.5 -303.5t-445 -108q-282 0 -452 166t-170 438zM362 600q0 -201 123 -324.5t324 -123.5q132 0 250 48t203.5 132t135.5 204t50 257q0 202 -122 324t-325 122 q-181 0 -326.5 -80t-229 -226.5t-83.5 -332.5zM709 1528l307 303h168l200 -303h-184l-117 182l-184 -182h-190z" />
<glyph unicode="&#xd5;" horiz-adv-x="1724" d="M154 573q0 247 115 441.5t315.5 301.5t449.5 107q284 0 453.5 -165.5t169.5 -438.5q0 -243 -117.5 -438.5t-318.5 -303.5t-445 -108q-282 0 -452 166t-170 438zM362 600q0 -201 123 -324.5t324 -123.5q132 0 250 48t203.5 132t135.5 204t50 257q0 202 -122 324t-325 122 q-181 0 -326.5 -80t-229 -226.5t-83.5 -332.5zM711 1569q14 79 56 134t93.5 75t104 18t90.5 -27l96 -69q43 -29 79.5 -9.5t45.5 70.5h154q-14 -79 -56 -134t-93.5 -75.5t-104.5 -18.5t-91 28l-96 69q-41 28 -79 8.5t-46 -69.5h-153z" />
<glyph unicode="&#xd6;" horiz-adv-x="1724" d="M154 573q0 247 115 441.5t315.5 301.5t449.5 107q284 0 453.5 -165.5t169.5 -438.5q0 -243 -117.5 -438.5t-318.5 -303.5t-445 -108q-282 0 -452 166t-170 438zM362 600q0 -201 123 -324.5t324 -123.5q132 0 250 48t203.5 132t135.5 204t50 257q0 202 -122 324t-325 122 q-181 0 -326.5 -80t-229 -226.5t-83.5 -332.5zM723 1675q0 51 36 85t87 34q53 0 89 -34t36 -85t-36 -85t-89 -34q-51 0 -87 34t-36 85zM1157 1675q0 51 36 85t87 34q53 0 88 -34t35 -85t-35 -85t-88 -34q-51 0 -87 34t-36 85z" />
<glyph unicode="&#xd7;" horiz-adv-x="1374" d="M227 346l367 311l-256 310l141 123l256 -308l365 310l106 -125l-364 -312l256 -311l-144 -123l-254 311l-366 -311z" />
<glyph unicode="&#xd8;" horiz-adv-x="1724" d="M137 82l127 123q-110 150 -110 368q0 247 115 441.5t315.5 301.5t449.5 107q231 0 385 -108l117 110l115 -110l-115 -111q121 -155 121 -385q0 -243 -117.5 -438.5t-318.5 -303.5t-445 -108q-240 0 -401 123l-125 -119zM362 600q0 -141 62 -244l842 809q-113 74 -265 74 q-181 0 -326.5 -80t-229 -226.5t-83.5 -332.5zM526 240q114 -88 283 -88q132 0 250 48t203.5 132t135.5 204t50 257q0 151 -70 260z" />
<glyph unicode="&#xd9;" horiz-adv-x="1560" d="M184 578l146 815h198l-145 -815q-34 -194 59 -308t281 -114q184 0 317 114t168 308l144 815h198l-143 -815q-50 -275 -241.5 -442t-465.5 -167q-277 0 -421 165.5t-95 443.5zM686 1831h248l113 -303h-170z" />
<glyph unicode="&#xda;" horiz-adv-x="1560" d="M184 578l146 815h198l-145 -815q-34 -194 59 -308t281 -114q184 0 317 114t168 308l144 815h198l-143 -815q-50 -275 -241.5 -442t-465.5 -167q-277 0 -421 165.5t-95 443.5zM881 1528l231 303h254l-285 -303h-200z" />
<glyph unicode="&#xdb;" horiz-adv-x="1560" d="M184 578l146 815h198l-145 -815q-34 -194 59 -308t281 -114q184 0 317 114t168 308l144 815h198l-143 -815q-50 -275 -241.5 -442t-465.5 -167q-277 0 -421 165.5t-95 443.5zM627 1528l307 303h168l201 -303h-185l-117 182l-184 -182h-190z" />
<glyph unicode="&#xdc;" horiz-adv-x="1560" d="M184 578l146 815h198l-145 -815q-34 -194 59 -308t281 -114q184 0 317 114t168 308l144 815h198l-143 -815q-50 -275 -241.5 -442t-465.5 -167q-277 0 -421 165.5t-95 443.5zM641 1675q0 51 36 85t87 34q53 0 89 -34t36 -85t-36 -85t-89 -34q-51 0 -87 34t-36 85z M1075 1675q0 51 36 85t87 34q53 0 88 -34t35 -85t-35 -85t-88 -34q-51 0 -87 34t-36 85z" />
<glyph unicode="&#xdd;" horiz-adv-x="1456" d="M209 1393h219l330 -705l585 705h226l-735 -910l-89 -483h-206l86 483zM827 1528l232 303h254l-285 -303h-201z" />
<glyph unicode="&#xde;" horiz-adv-x="1312" d="M104 0l246 1393h197l-37 -207q156 6 291 6q223 0 353 -106.5t130 -294.5q0 -160 -85.5 -287t-234 -196.5t-331.5 -69.5h-291l-41 -238h-197zM375 414h309q172 0 289 97.5t117 252.5q0 118 -82 183t-220 65q-163 0 -311 -8z" />
<glyph unicode="&#xdf;" horiz-adv-x="1339" d="M94 0l207 1169q34 188 141.5 279.5t302.5 91.5l-28 -170q-102 0 -156.5 -53.5t-75.5 -167.5l-32 -193h825l-21 -118l-411 -408l41 -2q149 -14 234 -109t75 -245q-12 -215 -175 -353.5t-405 -138.5q-152 0 -307 41l53 158q165 -31 283 -31q149 0 252 83.5t113 213.5 q9 101 -55.5 160t-180.5 59h-205l19 92l407 424h-573l-139 -782h-189z" />
<glyph unicode="&#xe0;" horiz-adv-x="1255" d="M98 451q28 239 188 387.5t388 148.5q215 0 500 -47l-166 -940h-189l15 78q-182 -109 -353 -109q-202 0 -306.5 132.5t-76.5 349.5zM279 410q0 -127 67.5 -204t188.5 -77q151 0 327 111l101 567q-151 22 -293 22q-174 0 -282.5 -116t-108.5 -303zM541 1462h250l98 -301 h-168z" />
<glyph unicode="&#xe1;" horiz-adv-x="1255" d="M98 451q28 239 188 387.5t388 148.5q215 0 500 -47l-166 -940h-189l15 78q-182 -109 -353 -109q-202 0 -306.5 132.5t-76.5 349.5zM279 410q0 -127 67.5 -204t188.5 -77q151 0 327 111l101 567q-151 22 -293 22q-174 0 -282.5 -116t-108.5 -303zM655 1161l205 301h254 l-270 -301h-189z" />
<glyph unicode="&#xe2;" horiz-adv-x="1255" d="M98 451q28 239 188 387.5t388 148.5q215 0 500 -47l-166 -940h-189l15 78q-182 -109 -353 -109q-202 0 -306.5 132.5t-76.5 349.5zM279 410q0 -127 67.5 -204t188.5 -77q151 0 327 111l101 567q-151 22 -293 22q-174 0 -282.5 -116t-108.5 -303zM440 1161l303 295h170 l201 -295h-184l-117 168l-184 -168h-189z" />
<glyph unicode="&#xe3;" horiz-adv-x="1255" d="M98 451q28 239 188 387.5t388 148.5q215 0 500 -47l-166 -940h-189l15 78q-182 -109 -353 -109q-202 0 -306.5 132.5t-76.5 349.5zM279 410q0 -127 67.5 -204t188.5 -77q151 0 327 111l101 567q-151 22 -293 22q-174 0 -282.5 -116t-108.5 -303zM432 1202q14 79 56 134 t93.5 75.5t104 18t90.5 -28.5l96 -68q43 -29 79.5 -9t45.5 69h154q-14 -79 -56 -134t-93.5 -75.5t-104 -18t-90.5 28.5l-96 70q-41 28 -79 7.5t-46 -69.5h-154z" />
<glyph unicode="&#xe4;" horiz-adv-x="1255" d="M98 451q28 239 188 387.5t388 148.5q215 0 500 -47l-166 -940h-189l15 78q-182 -109 -353 -109q-202 0 -306.5 132.5t-76.5 349.5zM279 410q0 -127 67.5 -204t188.5 -77q151 0 327 111l101 567q-151 22 -293 22q-174 0 -282.5 -116t-108.5 -303zM438 1286q0 51 36 85 t89 34q51 0 87 -34t36 -85t-36 -86t-87 -35q-53 0 -89 35t-36 86zM872 1286q0 51 36 85t89 34q51 0 87 -34t36 -85t-36 -86t-87 -35q-53 0 -89 35t-36 86z" />
<glyph unicode="&#xe5;" horiz-adv-x="1255" d="M98 451q28 239 188 387.5t388 148.5q215 0 500 -47l-166 -940h-189l15 78q-182 -109 -353 -109q-202 0 -306.5 132.5t-76.5 349.5zM279 410q0 -127 67.5 -204t188.5 -77q151 0 327 111l101 567q-151 22 -293 22q-174 0 -282.5 -116t-108.5 -303zM551 1311 q0 96 65.5 156.5t167.5 60.5q88 0 141.5 -52t53.5 -137q0 -95 -65.5 -157t-165.5 -62q-89 0 -143 53t-54 138zM659 1317q0 -42 27.5 -68t69.5 -26q48 0 81 30.5t33 79.5q0 42 -27.5 68t-70.5 26q-48 0 -80.5 -31.5t-32.5 -78.5z" />
<glyph unicode="&#xe6;" horiz-adv-x="1845" d="M59 227q0 169 121.5 246.5t364.5 75.5l254 -2l2 10l10 53q18 107 -36 163t-165 56q-134 0 -381 -34l9 157q243 43 415 43q255 0 322 -155q168 149 405 149q205 0 313 -121.5t72 -320.5q-13 -77 -34 -139h-758q5 -124 82 -197.5t213 -73.5q100 0 356 53v-151 q-233 -70 -391 -70q-205 0 -320 103q-188 -63 -302 -83t-214 -20q-166 0 -252 66t-86 192zM242 252q0 -129 227 -129q146 0 354 65q-43 87 -43 203h-278q-137 0 -198.5 -31.5t-61.5 -107.5zM989 553h606q22 131 -44 209t-195 78q-134 0 -232.5 -78.5t-134.5 -208.5z" />
<glyph unicode="&#xe7;" horiz-adv-x="1067" d="M92 395q0 129 49.5 240.5t135 189t202.5 122t248 44.5q164 0 326 -57l-54 -150q-171 41 -292 41q-181 0 -302.5 -112.5t-121.5 -290.5q0 -130 80.5 -204.5t216.5 -74.5q131 0 323 50l2 -162q-196 -62 -362 -62q-205 0 -328 116.5t-123 309.5zM238 -422l153 320h182 l-178 -320h-157z" />
<glyph unicode="&#xe8;" horiz-adv-x="1159" d="M92 424q15 250 186.5 407.5t409.5 157.5q204 0 311 -118.5t76 -319.5q-11 -72 -35 -143h-753q0 -133 70 -197t216 -64q118 0 355 54l6 -162q-227 -70 -385 -70q-235 0 -353 125.5t-104 329.5zM305 553h598q20 135 -44 211t-193 76q-128 0 -225.5 -78t-135.5 -209z M494 1462h249l99 -301h-168z" />
<glyph unicode="&#xe9;" horiz-adv-x="1159" d="M92 424q15 250 186.5 407.5t409.5 157.5q204 0 311 -118.5t76 -319.5q-11 -72 -35 -143h-753q0 -133 70 -197t216 -64q118 0 355 54l6 -162q-227 -70 -385 -70q-235 0 -353 125.5t-104 329.5zM305 553h598q20 135 -44 211t-193 76q-128 0 -225.5 -78t-135.5 -209z M608 1161l205 301h254l-270 -301h-189z" />
<glyph unicode="&#xea;" horiz-adv-x="1159" d="M92 424q15 250 186.5 407.5t409.5 157.5q204 0 311 -118.5t76 -319.5q-11 -72 -35 -143h-753q0 -133 70 -197t216 -64q118 0 355 54l6 -162q-227 -70 -385 -70q-235 0 -353 125.5t-104 329.5zM305 553h598q20 135 -44 211t-193 76q-128 0 -225.5 -78t-135.5 -209z M393 1161l303 295h170l201 -295h-184l-117 168l-184 -168h-189z" />
<glyph unicode="&#xeb;" horiz-adv-x="1159" d="M92 424q15 250 186.5 407.5t409.5 157.5q204 0 311 -118.5t76 -319.5q-11 -72 -35 -143h-753q0 -133 70 -197t216 -64q118 0 355 54l6 -162q-227 -70 -385 -70q-235 0 -353 125.5t-104 329.5zM305 553h598q20 135 -44 211t-193 76q-128 0 -225.5 -78t-135.5 -209z M391 1286q0 51 36 85t89 34q51 0 87 -34t36 -85t-36 -86t-87 -35q-53 0 -89 35t-36 86zM825 1286q0 51 36 85t89 34q51 0 87 -34t36 -85t-36 -86t-87 -35q-53 0 -89 35t-36 86z" />
<glyph unicode="&#xec;" horiz-adv-x="526" d="M84 0l170 956h186l-168 -956h-188zM90 1462h250l98 -301h-170z" />
<glyph unicode="&#xed;" horiz-adv-x="526" d="M84 0l170 956h186l-168 -956h-188zM285 1161l204 301h254l-270 -301h-188z" />
<glyph unicode="&#xee;" horiz-adv-x="526" d="M59 1161l303 295h170l201 -295h-184l-117 168l-184 -168h-189zM84 0l170 956h186l-168 -956h-188z" />
<glyph unicode="&#xef;" horiz-adv-x="526" d="M57 1286q0 51 36 85t89 34q51 0 87 -34t36 -85t-36 -86t-87 -35q-53 0 -89 35t-36 86zM84 0l170 956h186l-168 -956h-188zM492 1286q0 51 35.5 85t88.5 34q51 0 87 -34t36 -85t-36 -86t-87 -35q-52 0 -88 35t-36 86z" />
<glyph unicode="&#xf0;" horiz-adv-x="1251" d="M100 498q26 147 112 262t208.5 176t259.5 61q180 0 281 -116q-46 197 -170 305l-330 -115l-25 115l246 88q-88 62 -209 110l197 76q118 -46 211 -123l198 72l27 -115l-129 -49q122 -128 172 -321.5t12 -417.5q-45 -255 -210.5 -398t-401.5 -143t-363.5 148.5t-85.5 384.5 zM279 453q-12 -142 66.5 -229t215.5 -87q164 0 278.5 106.5t127.5 278.5q12 139 -67 221t-216 82q-157 0 -275 -105t-130 -267z" />
<glyph unicode="&#xf1;" horiz-adv-x="1282" d="M98 0l166 940q97 19 255.5 33t289.5 14q183 0 272 -103t58 -280l-107 -604h-188l98 557q22 121 -32 190.5t-167 69.5q-145 0 -315 -24l-141 -793h-189zM428 1202q14 79 56 134t93.5 75.5t104 18t90.5 -28.5l96 -68q43 -29 79.5 -9t45.5 69h154q-14 -79 -56 -134 t-93.5 -75.5t-104 -18t-90.5 28.5l-96 70q-41 28 -79 7.5t-46 -69.5h-154z" />
<glyph unicode="&#xf2;" d="M92 397q0 129 49 241t133 190.5t200 123.5t247 45q208 0 329 -116t121 -312q0 -171 -83.5 -310t-227.5 -216.5t-319 -77.5q-206 0 -327.5 118t-121.5 314zM285 424q0 -131 76.5 -209t209.5 -78q171 0 288.5 116t117.5 290q0 130 -77 206t-210 76q-171 0 -288 -114 t-117 -287zM524 1462h250l98 -301h-167z" />
<glyph unicode="&#xf3;" d="M92 397q0 129 49 241t133 190.5t200 123.5t247 45q208 0 329 -116t121 -312q0 -171 -83.5 -310t-227.5 -216.5t-319 -77.5q-206 0 -327.5 118t-121.5 314zM285 424q0 -131 76.5 -209t209.5 -78q171 0 288.5 116t117.5 290q0 130 -77 206t-210 76q-171 0 -288 -114 t-117 -287zM641 1161l205 301h254l-271 -301h-188z" />
<glyph unicode="&#xf4;" d="M92 397q0 129 49 241t133 190.5t200 123.5t247 45q208 0 329 -116t121 -312q0 -171 -83.5 -310t-227.5 -216.5t-319 -77.5q-206 0 -327.5 118t-121.5 314zM285 424q0 -131 76.5 -209t209.5 -78q171 0 288.5 116t117.5 290q0 130 -77 206t-210 76q-171 0 -288 -114 t-117 -287zM426 1161l303 295h170l201 -295h-185l-116 168l-185 -168h-188z" />
<glyph unicode="&#xf5;" d="M92 397q0 129 49 241t133 190.5t200 123.5t247 45q208 0 329 -116t121 -312q0 -171 -83.5 -310t-227.5 -216.5t-319 -77.5q-206 0 -327.5 118t-121.5 314zM285 424q0 -131 76.5 -209t209.5 -78q171 0 288.5 116t117.5 290q0 130 -77 206t-210 76q-171 0 -288 -114 t-117 -287zM416 1202q14 79 56 134t93.5 75.5t104 18t90.5 -28.5l96 -68q43 -29 79.5 -9t45.5 69h154q-14 -79 -56 -134t-93.5 -75.5t-104 -18t-90.5 28.5l-97 70q-41 28 -79 7.5t-46 -69.5h-153z" />
<glyph unicode="&#xf6;" d="M92 397q0 129 49 241t133 190.5t200 123.5t247 45q208 0 329 -116t121 -312q0 -171 -83.5 -310t-227.5 -216.5t-319 -77.5q-206 0 -327.5 118t-121.5 314zM285 424q0 -131 76.5 -209t209.5 -78q171 0 288.5 116t117.5 290q0 130 -77 206t-210 76q-171 0 -288 -114 t-117 -287zM424 1286q0 51 36 85t89 34q51 0 87 -34t36 -85t-36 -86t-87 -35q-53 0 -89 35t-36 86zM858 1286q0 51 36 85t89 34q51 0 87 -34t36 -85t-36 -86t-87 -35q-53 0 -89 35t-36 86z" />
<glyph unicode="&#xf7;" horiz-adv-x="1411" d="M246 582l30 174h957l-31 -174h-956zM500 287q0 49 33 81.5t83 32.5t84.5 -32.5t34.5 -81.5q0 -47 -34.5 -80t-84.5 -33q-49 0 -82.5 33t-33.5 80zM705 1055q0 49 33 81.5t83 32.5t84.5 -32.5t34.5 -81.5q0 -47 -34.5 -80t-84.5 -33q-49 0 -82.5 33t-33.5 80z" />
<glyph unicode="&#xf8;" d="M41 -6l133 133q-82 111 -82 270q0 129 49 241t133 190.5t200 123.5t247 45q155 0 264 -65l125 125l94 -88l-123 -121q90 -110 90 -279q0 -171 -83.5 -310t-227.5 -216.5t-319 -77.5q-160 0 -273 74l-133 -133zM285 424q0 -90 34 -154l523 521q-61 34 -152 34 q-171 0 -288 -114t-117 -287zM410 178q65 -41 161 -41q171 0 288.5 116t117.5 290q0 94 -41 159z" />
<glyph unicode="&#xf9;" d="M139 352l107 604h188l-100 -565q-23 -129 28 -194.5t173 -65.5q126 0 315 23l141 802h189l-164 -936q-96 -22 -254.5 -36.5t-292.5 -14.5q-187 0 -275.5 95t-54.5 288zM522 1462h250l98 -301h-168z" />
<glyph unicode="&#xfa;" d="M139 352l107 604h188l-100 -565q-23 -129 28 -194.5t173 -65.5q126 0 315 23l141 802h189l-164 -936q-96 -22 -254.5 -36.5t-292.5 -14.5q-187 0 -275.5 95t-54.5 288zM639 1161l205 301h254l-271 -301h-188z" />
<glyph unicode="&#xfb;" d="M139 352l107 604h188l-100 -565q-23 -129 28 -194.5t173 -65.5q126 0 315 23l141 802h189l-164 -936q-96 -22 -254.5 -36.5t-292.5 -14.5q-187 0 -275.5 95t-54.5 288zM424 1161l303 295h170l201 -295h-185l-116 168l-185 -168h-188z" />
<glyph unicode="&#xfc;" d="M139 352l107 604h188l-100 -565q-23 -129 28 -194.5t173 -65.5q126 0 315 23l141 802h189l-164 -936q-96 -22 -254.5 -36.5t-292.5 -14.5q-187 0 -275.5 95t-54.5 288zM422 1286q0 51 36 85t89 34q51 0 87 -34t36 -85t-36 -86t-87 -35q-53 0 -89 35t-36 86zM856 1286 q0 51 36 85t89 34q51 0 87 -34t36 -85t-36 -86t-87 -35q-53 0 -89 35t-36 86z" />
<glyph unicode="&#xfd;" horiz-adv-x="1288" d="M147 -467l349 526l-346 902h206l273 -701l465 701h215l-959 -1428h-203zM633 1163l205 301h254l-271 -301h-188z" />
<glyph unicode="&#xfe;" horiz-adv-x="1253" d="M-2 -467l340 1921h188l-86 -489q125 22 324 22q215 0 318 -127.5t79 -345.5q-26 -242 -184 -393.5t-381 -151.5q-189 0 -328 23l-82 -459h-188zM297 154q134 -25 284 -25h9h8q165 0 274 121t109 305q0 125 -68 199.5t-202 74.5q-139 0 -299 -22z" />
<glyph unicode="&#xff;" horiz-adv-x="1288" d="M147 -467l349 526l-346 902h206l273 -701l465 701h215l-959 -1428h-203zM416 1288q0 51 36 85t89 34q51 0 87 -34t36 -85t-36 -86t-87 -35q-53 0 -89 35t-36 86zM850 1288q0 51 36 85t89 34q51 0 87 -34t36 -85t-36 -86t-87 -35q-53 0 -89 35t-36 86z" />
<glyph unicode="&#x152;" horiz-adv-x="2043" d="M156 584q0 243 123 428t336.5 282.5t484.5 98.5h989l-33 -181h-792l-76 -426h706l-30 -180h-707l-76 -426h793l-31 -180h-989q-322 2 -510 158t-188 426zM362 606q0 -201 136 -312t389 -112l180 1026q-331 -1 -518 -162t-187 -440z" />
<glyph unicode="&#x153;" horiz-adv-x="2029" d="M92 397q0 129 49 241t133 190.5t200 123.5t247 45q137 0 239 -52t156 -148q83 92 198.5 142t246.5 50q203 0 310 -118.5t77 -319.5q-13 -73 -37 -143h-754q0 -133 70.5 -197t216.5 -64q117 0 354 54l6 -162q-227 -70 -385 -70q-293 0 -403 195q-87 -95 -210.5 -147 t-264.5 -52q-206 0 -327.5 118t-121.5 314zM285 424q0 -131 76.5 -209t209.5 -78q146 0 255 85.5t141 223.5q4 48 10 70v27q0 130 -77 206t-210 76q-171 0 -288 -114t-117 -287zM1176 553h600q19 135 -46 211t-192 76q-130 0 -226.5 -77.5t-135.5 -209.5z" />
<glyph unicode="&#x178;" horiz-adv-x="1456" d="M209 1393h219l330 -705l585 705h226l-735 -910l-89 -483h-206l86 483zM590 1675q0 51 36 85t87 34q53 0 89 -34t36 -85t-36 -85t-89 -34q-51 0 -87 34t-36 85zM1024 1675q0 51 36 85t87 34q53 0 88 -34t35 -85t-35 -85t-88 -34q-51 0 -87 34t-36 85z" />
<glyph unicode="&#x2c6;" horiz-adv-x="1228" d="M397 1161l303 295h170l201 -295h-184l-117 168l-184 -168h-189z" />
<glyph unicode="&#x2dc;" horiz-adv-x="1228" d="M379 1202q14 79 56 134t93.5 75.5t104 18t90.5 -28.5l96 -68q43 -29 79.5 -9t45.5 69h154q-14 -79 -56 -134t-93.5 -75.5t-104 -18t-90.5 28.5l-97 70q-41 28 -79 7.5t-46 -69.5h-153z" />
<glyph unicode="&#x2000;" horiz-adv-x="951" />
<glyph unicode="&#x2001;" horiz-adv-x="1903" />
<glyph unicode="&#x2002;" horiz-adv-x="951" />
<glyph unicode="&#x2003;" horiz-adv-x="1903" />
<glyph unicode="&#x2004;" horiz-adv-x="634" />
<glyph unicode="&#x2005;" horiz-adv-x="475" />
<glyph unicode="&#x2006;" horiz-adv-x="317" />
<glyph unicode="&#x2007;" horiz-adv-x="317" />
<glyph unicode="&#x2008;" horiz-adv-x="237" />
<glyph unicode="&#x2009;" horiz-adv-x="380" />
<glyph unicode="&#x200a;" horiz-adv-x="105" />
<glyph unicode="&#x2010;" horiz-adv-x="1081" d="M221 453h629l33 188h-627z" />
<glyph unicode="&#x2011;" horiz-adv-x="1081" d="M221 453h629l33 188h-627z" />
<glyph unicode="&#x2012;" horiz-adv-x="1081" d="M221 453h629l33 188h-627z" />
<glyph unicode="&#x2013;" horiz-adv-x="1345" d="M160 455h1018l32 188h-1017z" />
<glyph unicode="&#x2014;" horiz-adv-x="1968" d="M160 455h1640l33 188h-1640z" />
<glyph unicode="&#x2018;" horiz-adv-x="587" d="M270 1176q0 36 16 74.5t92 190.5q12 25 19.5 39.5t20.5 40t24 48.5h138l-113 -277q88 -34 88 -116q0 -57 -41.5 -97.5t-99.5 -40.5q-60 0 -102 40.5t-42 97.5z" />
<glyph unicode="&#x2019;" horiz-adv-x="587" d="M291 1042l112 279q-88 34 -88 117q0 57 42.5 97t101.5 40t101 -40t42 -97q0 -37 -17.5 -79t-93.5 -195q-38 -75 -61 -122h-139z" />
<glyph unicode="&#x201a;" horiz-adv-x="587" d="M57 -285l113 277q-88 34 -88 117q0 57 41 97t100 40q60 0 102 -40t42 -97q0 -39 -17.5 -81t-112.5 -232q-25 -52 -40 -81h-140z" />
<glyph unicode="&#x201c;" horiz-adv-x="970" d="M270 1176q0 36 16 74.5t92 190.5q12 25 19.5 39.5t20.5 40t24 48.5h138l-113 -277q88 -34 88 -116q0 -58 -41 -98t-100 -40q-60 0 -102 40t-42 98zM653 1176q0 39 19.5 85t104.5 217q10 18 15 29t14 28.5t17 33.5h140l-113 -277q88 -34 88 -116q0 -58 -41 -98t-100 -40 q-60 0 -102 40t-42 98z" />
<glyph unicode="&#x201d;" horiz-adv-x="968" d="M293 1053l113 276q-89 35 -89 119q0 57 41.5 96t100.5 39q60 0 101.5 -39t41.5 -96q0 -39 -17.5 -81t-109.5 -224q-9 -18 -14.5 -28.5t-14 -28.5t-16.5 -33h-137zM674 1053l114 276q-90 35 -90 119q0 57 42.5 96t101.5 39t101 -39t42 -96q0 -36 -16.5 -77t-90.5 -188 l-65 -130h-139z" />
<glyph unicode="&#x201e;" horiz-adv-x="972" d="M57 -285l113 277q-88 34 -88 117q0 57 41 97t100 40q60 0 102 -40t42 -97q0 -39 -17.5 -81t-112.5 -232q-25 -52 -40 -81h-140zM442 -285l113 277q-88 34 -88 117q0 57 41 97t100 40q60 0 102 -40t42 -97q0 -39 -17.5 -81t-112.5 -232q-25 -52 -40 -81h-140z" />
<glyph unicode="&#x2022;" horiz-adv-x="679" d="M111 608q0 106 72 178t179 72t179.5 -72t72.5 -178t-72.5 -178t-179.5 -72t-179 72t-72 178z" />
<glyph unicode="&#x2026;" horiz-adv-x="1531" d="M88 106q0 58 41 99t100 41q60 0 102 -41t42 -99t-42 -97.5t-102 -39.5q-59 0 -100 39.5t-41 97.5zM553 106q0 58 41 99t100 41q60 0 102 -41t42 -99t-42 -97.5t-102 -39.5q-59 0 -100 39.5t-41 97.5zM1028 106q0 58 41 99t100 41q60 0 102 -41t42 -99t-42 -97.5 t-102 -39.5q-59 0 -100 39.5t-41 97.5z" />
<glyph unicode="&#x202f;" horiz-adv-x="380" />
<glyph unicode="&#x2039;" horiz-adv-x="729" d="M100 506l451 407l92 -98l-350 -315l237 -310l-116 -98z" />
<glyph unicode="&#x203a;" horiz-adv-x="727" d="M86 190l350 316l-239 311l118 96l312 -413l-449 -408z" />
<glyph unicode="&#x205f;" horiz-adv-x="475" />
<glyph unicode="&#x20ac;" horiz-adv-x="1544" d="M117 455l24 137h144q3 54 12 96q5 33 16 74h-143l25 137h161q99 244 307.5 384t481.5 140q108 0 231.5 -22t227.5 -60l-68 -172q-235 60 -399 60q-186 0 -331 -87.5t-224 -242.5h589l-59 -137h-588q-12 -44 -16 -72q-8 -58 -8 -98h540l-57 -137h-465q30 -139 136 -218 t272 -79q178 0 460 69l9 -170q-288 -88 -512 -88q-257 0 -413 130t-181 356h-172z" />
<glyph unicode="&#x2122;" horiz-adv-x="1497" d="M188 1276l21 117h573l-20 -117h-225l-91 -514h-124l92 514h-226zM721 762l143 631h117l131 -478l295 478h117l-74 -631h-121l47 381l-235 -381h-109l-102 381l-90 -381h-119z" />
<glyph unicode="&#x25fc;" horiz-adv-x="952" d="M0 0v952h952v-952h-952z" />
<glyph unicode="&#xfb03;" horiz-adv-x="2004" d="M55 788l31 168h227l23 138q38 215 183.5 330.5t361.5 115.5q108 0 188 -31.5t174 -101.5q142 133 375 133q104 0 180 -29t172 -94l-112 -135q-124 88 -261 88q-138 0 -221 -71.5t-108 -211.5l-23 -131h705l-168 -956h-189l140 788h-519l-139 -788h-188l139 788h-557 l-137 -788h-189l140 788h-228zM500 956h557l22 138q19 103 60 170q-130 106 -277 106q-288 0 -338 -283z" />
<glyph unicode="&#xfb04;" horiz-adv-x="2031" d="M57 788l29 168h227l25 138q38 215 183.5 330.5t361.5 115.5q105 0 184.5 -30t169.5 -97q136 127 381 127q125 0 254 -63l156 -9l-259 -1468h-188l234 1321q-104 49 -222 49q-274 0 -323 -274l-25 -140h363l-29 -168h-365l-137 -788h-188l139 788h-557l-139 -788h-189 l140 788h-226zM500 956h557l26 146q15 90 54 164q-124 104 -275 104q-288 0 -338 -283z" />
</font>
</defs>
</svg>
